<svg width="171" height="52" viewBox="0 0 171 52" fill="none" xmlns="http://www.w3.org/2000/svg">
<path d="M63.79 47.2744V51.3044H50.7V30.4244H63.53V34.4544H55.15V38.7244H63.02V42.6944H55.15V47.2844H63.8L63.79 47.2744ZM63.13 24.1644L58.21 28.6944H55.42L59.02 24.1644H63.13ZM67.13 45.6644V30.4244H71.31V45.5744C71.31 47.3344 71.73 47.8744 73.16 47.8744C73.43 47.8744 73.76 47.8444 74.17 47.7844V51.2144C73.36 51.3944 72.62 51.4544 71.87 51.4544C68.53 51.4544 67.13 49.8144 67.13 45.6644ZM89.41 45.3744H79.63C80.11 47.2244 81.69 48.1744 84.22 48.1744C85.71 48.1744 87.17 47.9044 88.46 47.3344L89.21 50.3744C87.33 51.2344 85.66 51.5944 83.72 51.5944C78.68 51.5944 75.43 48.7644 75.43 44.0744C75.43 39.6644 78.32 36.6144 82.95 36.6144C87.07 36.6144 89.72 39.0944 89.72 42.8144C89.72 43.6244 89.63 44.4244 89.42 45.3544L89.41 45.3744ZM79.63 42.5944H86.04C86.04 40.7744 84.76 39.9144 83.03 39.9144C81.3 39.9144 80.08 40.8944 79.63 42.5944ZM106.53 36.9244V37.1344L99.49 51.5144H97.7L90.63 37.1344V36.9244H95.13L96.98 41.1044L98.59 45.0444L100.14 41.0744L101.99 36.9244H106.52H106.53ZM121.42 45.3744H111.64C112.12 47.2244 113.7 48.1744 116.23 48.1744C117.72 48.1744 119.18 47.9044 120.47 47.3344L121.22 50.3744C119.34 51.2344 117.67 51.5944 115.73 51.5944C110.69 51.5944 107.44 48.7644 107.44 44.0744C107.44 39.6644 110.33 36.6144 114.96 36.6144C119.08 36.6144 121.73 39.0944 121.73 42.8144C121.73 43.6244 121.64 44.4244 121.43 45.3544L121.42 45.3744ZM111.63 42.5944H118.04C118.04 40.7744 116.76 39.9144 115.03 39.9144C113.3 39.9144 112.08 40.8944 111.63 42.5944ZM119.44 30.6144L115.64 35.0744H113.68L116.42 30.6144H119.45H119.44ZM4.13996 2.25439C4.74996 2.10439 5.37996 2.03439 6.00996 2.03439C6.75996 2.03439 7.50996 2.14439 8.22996 2.35439C10.32 2.98439 12.09 4.47439 13.08 6.44439C13.98 8.23439 14.86 8.92439 16.22 8.92439H16.32C17.71 8.89439 18.94 7.94439 19.33 6.61439C19.77 5.09439 18.83 3.78439 17.96 2.94439C15.25 0.364392 11.33 -0.615608 7.70996 0.424392C6.41996 0.794392 5.19996 1.42439 4.13996 2.26439M19.39 14.7644C19 13.4344 17.77 12.4844 16.39 12.4544C14.99 12.4244 14.06 13.1144 13.15 14.9344C12.16 16.9044 10.39 18.4044 8.29996 19.0244C6.96996 19.4244 5.55996 19.4544 4.21996 19.1344C5.28996 19.9744 6.49996 20.5944 7.78996 20.9644C11.4 22.0044 15.33 21.0244 18.03 18.4244C18.9 17.5844 19.84 16.2744 19.4 14.7644M0.319961 13.2444C0.679961 14.7744 1.70996 16.0444 3.12996 16.7444L3.32996 16.8444C4.72996 17.5344 6.29996 17.6644 7.74996 17.2344C8.25996 17.0844 8.73996 16.8644 9.19996 16.5744C8.69996 16.4644 8.21996 16.2944 7.76996 16.0644C5.50996 14.9044 4.38996 12.9944 4.43996 10.3744C4.47996 8.02439 6.07996 5.39439 8.98996 4.70439C8.57996 4.46439 8.13996 4.27439 7.68996 4.13439C7.14996 3.97439 6.58996 3.89439 6.01996 3.89439C5.07996 3.89439 4.13996 4.10439 3.27996 4.53439C1.65996 5.33439 0.499961 6.82439 0.179961 8.52439C-0.0300386 9.65439 -0.0600386 10.8544 0.109961 12.1144C0.159961 12.5044 0.229961 12.8844 0.319961 13.2544M67.41 13.2444C67.78 14.7744 68.8 16.0444 70.22 16.7444L70.43 16.8444C71.83 17.5344 73.39 17.6744 74.84 17.2344C75.35 17.0844 75.83 16.8644 76.29 16.5744C75.79 16.4644 75.31 16.2944 74.86 16.0644C72.6 14.9044 71.48 12.9944 71.53 10.3744C71.57 8.02439 73.17 5.39439 76.08 4.70439C75.67 4.46439 75.23 4.27439 74.78 4.13439C74.24 3.97439 73.68 3.89439 73.11 3.89439C72.17 3.89439 71.23 4.10439 70.37 4.53439C68.75 5.32439 67.6 6.81439 67.28 8.51439C67.07 9.64439 67.04 10.8444 67.21 12.1044C67.26 12.4944 67.33 12.8744 67.42 13.2444M71.23 2.25439C71.84 2.10439 72.47 2.03439 73.1 2.03439C73.86 2.03439 74.6 2.14439 75.32 2.35439C77.41 2.98439 79.18 4.47439 80.17 6.44439C81.06 8.20439 81.97 8.92439 83.31 8.92439H83.42C84.81 8.89439 86.04 7.94439 86.43 6.61439C86.87 5.09439 85.93 3.78439 85.06 2.94439C82.35 0.344392 78.43 -0.625608 74.82 0.404392C73.53 0.774392 72.32 1.40439 71.25 2.24439M86.48 14.7644C86.09 13.4344 84.86 12.4844 83.48 12.4544C82.06 12.4144 81.15 13.1144 80.24 14.9344C79.25 16.9044 77.48 18.3944 75.39 19.0244C74.06 19.4244 72.66 19.4544 71.31 19.1344C72.38 19.9744 73.59 20.5944 74.88 20.9644C78.49 21.9944 82.42 21.0244 85.12 18.4244C85.99 17.5844 86.93 16.2744 86.49 14.7644M61.99 0.0143919C60.76 0.0143919 59.76 1.01439 59.76 2.24439V9.28439L59.83 9.39439C60.34 10.1044 61.12 10.5744 61.99 10.7044C62.14 10.7244 62.3 10.7344 62.44 10.7344H63.07C63.44 10.7344 63.81 10.6744 64.15 10.5444L64.22 10.5244V2.24439C64.22 1.01439 63.22 0.0143919 61.99 0.0143919ZM46.62 6.15439V19.0244C46.62 20.2544 47.62 21.2544 48.85 21.2544C50.08 21.2544 51.08 20.2544 51.08 19.0244V12.4144L47.2 6.98439C47.01 6.71439 46.81 6.43439 46.63 6.15439M62.44 12.7144C62.22 12.7144 61.99 12.6944 61.77 12.6644C60.47 12.4744 59.28 11.7644 58.52 10.6944L51.64 1.08439C51.16 0.414392 50.38 0.0143919 49.55 0.0143919H48.96C48.38 0.0143919 47.84 0.204392 47.38 0.554392L47.29 0.624392C46.57 1.24439 46.41 2.30439 46.91 3.15439L47.21 3.65439C47.61 4.34439 48.05 5.02439 48.52 5.67439L58.94 20.2444C59.42 20.9144 60.2 21.3144 61.03 21.3144H61.66C61.73 21.3144 61.79 21.3144 61.86 21.3144C63.19 21.2144 64.23 20.0944 64.23 18.7544V12.5644C63.86 12.6544 63.47 12.7044 63.08 12.7044H62.45L62.44 12.7144ZM104.3 20.5444C104.56 20.4344 104.91 20.2344 105.31 19.9744C105.86 19.6144 106.23 19.0644 106.34 18.4244C106.45 17.7844 106.3 17.1444 105.91 16.6244L105.79 16.4744C105.06 15.5144 103.72 15.2744 102.65 15.9344C102.57 15.9844 102.49 16.0244 102.42 16.0544C100.99 16.6744 99.29 16.6744 97.88 16.0544C97.18 15.7544 96.56 15.3344 96.04 14.8144C95.51 14.2944 95.1 13.6744 94.8 12.9744C94.5 12.2744 94.34 11.5144 94.34 10.7044C94.34 8.94439 94.68 7.26439 95.35 5.69439C96.02 4.13439 96.95 2.76439 98.11 1.60439C98.7 1.01439 99.34 0.484392 100.04 0.0243919C98.62 0.0343919 97.26 0.314392 96 0.864392C94.7 1.42439 93.55 2.19439 92.59 3.15439C91.63 4.11439 90.86 5.26439 90.3 6.56439C89.74 7.85439 89.46 9.24439 89.46 10.7044C89.46 12.1644 89.74 13.5544 90.3 14.8444C90.86 16.1444 91.63 17.2944 92.59 18.2544C93.55 19.2144 94.7 19.9844 96 20.5444C98.27 21.5244 101 21.6444 103.35 20.8944C103.67 20.7944 103.99 20.6744 104.3 20.5444ZM110 6.55439C109.44 5.25439 108.67 4.10439 107.71 3.14439C106.75 2.18439 105.6 1.41439 104.3 0.854392C103.92 0.694392 103.51 0.544392 103.09 0.424392L101.97 1.03439C101.03 1.54439 100.18 2.18439 99.44 2.91439C98.68 3.67439 98.03 4.55439 97.51 5.52439C97.63 5.46439 97.76 5.40439 97.88 5.34439C99.29 4.73439 101 4.73439 102.41 5.34439C103.11 5.64439 103.72 6.06439 104.25 6.58439C104.77 7.10439 105.19 7.72439 105.49 8.42439C105.8 9.13439 105.95 9.89439 105.95 10.6944C105.95 11.4944 105.8 12.2544 105.49 12.9644C105.36 13.2644 105.21 13.5444 105.03 13.8244C105.93 14.0644 106.71 14.5844 107.28 15.3444L107.39 15.4944C107.88 16.1444 108.16 16.8944 108.22 17.6844C108.94 16.8444 109.53 15.8944 109.99 14.8444C110.54 13.5544 110.83 12.1644 110.83 10.7044C110.83 9.24439 110.55 7.85439 109.99 6.56439M127.53 13.1344C129.62 11.8344 130.87 9.59439 130.87 7.13439C130.87 3.24439 127.7 0.0743919 123.81 0.0543919H121.37L120.95 0.524392C120.44 1.10439 120.16 1.78439 120.16 2.45439V3.60439H122.75C124.68 3.60439 126.25 5.19439 126.25 7.13439C126.25 7.21439 126.25 7.28439 126.25 7.36439C126.14 9.13439 124.62 10.5244 122.8 10.5244H120.16V14.0744H122.1L124.24 18.1744C125.26 20.1244 127.26 21.3344 129.46 21.3344H130.63L126.63 13.6844L127.52 13.1344H127.53ZM116.11 0.0543919C114.79 0.0543919 113.71 1.13439 113.71 2.45439V19.0944C113.71 20.2444 114.57 21.1944 115.71 21.3144C115.86 21.3244 116.02 21.3244 116.17 21.3144C117.31 21.2044 118.17 20.2444 118.17 19.0944V2.45439C118.17 1.62439 118.43 0.794392 118.92 0.0543919H116.11ZM152.83 13.9644C153.4 11.9544 153.44 9.89439 152.95 7.82439C152.4 5.53439 151.19 3.68439 149.35 2.31439C147.43 0.884392 145.24 0.124392 142.83 0.0643919C142.38 0.0543919 142.13 0.0443919 141.43 0.0443919L141 0.534392C140.49 1.11439 140.2 1.79439 140.2 2.46439V4.41439H142.5C145.97 4.41439 148.8 7.23439 148.8 10.7044C148.8 14.1744 145.98 16.9944 142.5 16.9944H140.2V19.1044C140.2 19.9044 139.95 20.6844 139.49 21.3244H140.32C141.08 21.3244 141.57 21.3244 142.37 21.3144C144.47 21.2944 146.39 20.8144 148.1 19.8844C150.5 18.5644 152.1 16.5744 152.84 13.9644M138.21 2.46439C138.21 1.63439 138.47 0.804392 138.95 0.0643919H136.14C134.82 0.0643919 133.74 1.14439 133.74 2.46439V19.1044C133.74 20.3344 134.74 21.3344 135.97 21.3344C137.2 21.3344 138.2 20.3344 138.2 19.1044V2.46439H138.21ZM166.3 17.6744H162.63V19.1344C162.63 19.9344 162.38 20.7044 161.92 21.3544H170.98C170.46 19.2244 168.52 17.6744 166.3 17.6744ZM162.63 2.46439V3.74439H166.3C168.52 3.74439 170.46 2.18439 170.98 0.0643919H163.84L163.42 0.534392C162.91 1.11439 162.62 1.80439 162.62 2.46439M162.63 8.88439V12.5644H166.91C167.2 12.5644 167.44 12.3244 167.44 12.0344V9.40439C167.44 9.11439 167.2 8.87439 166.91 8.87439H162.63V8.88439ZM160.64 2.46439C160.64 1.63439 160.9 0.804392 161.38 0.0543919H158.57C157.24 0.0543919 156.16 1.13439 156.16 2.46439V19.1444C156.16 20.3744 157.17 21.3844 158.4 21.3844C159.63 21.3844 160.64 20.3844 160.64 19.1444V2.46439ZM28.74 14.5644C28.31 14.0944 27.97 13.5544 27.71 12.9544C27.47 12.3944 27.32 11.7844 27.27 11.1544C27.26 11.0044 27.25 10.8444 27.25 10.6844C27.25 10.4444 27.25 10.2044 27.27 9.97439C27.52 4.58439 30.54 1.56439 32.88 0.0143919C31.49 0.0343919 30.15 0.314392 28.91 0.854392C27.61 1.41439 26.46 2.18439 25.5 3.14439C24.54 4.10439 23.77 5.25439 23.21 6.55439C22.66 7.84439 22.37 9.23439 22.37 10.6944C22.37 12.1544 22.65 13.5444 23.21 14.8344C23.77 16.1344 24.54 17.2844 25.5 18.2444C26.46 19.2044 27.61 19.9744 28.91 20.5344C31.18 21.5144 33.91 21.6344 36.26 20.8844C36.58 20.7844 36.9 20.6644 37.2 20.5344C37.46 20.4244 37.82 20.2244 38.21 19.9644C38.76 19.6044 39.13 19.0544 39.24 18.4144C39.35 17.7744 39.2 17.1344 38.81 16.6144L38.7 16.4644C37.97 15.4944 36.62 15.2644 35.56 15.9144C35.47 15.9744 35.39 16.0144 35.32 16.0444C34.75 16.2944 34.12 16.4444 33.46 16.4844C31.78 16.6144 30.2 16.0444 29 14.8444L28.74 14.5744V14.5644ZM42.91 6.55439C42.35 5.25439 41.58 4.10439 40.62 3.14439C39.66 2.18439 38.51 1.41439 37.21 0.854392C36.82 0.684392 36.41 0.544392 35.97 0.414392L34.82 1.03439C33.6 1.68439 31.54 3.10439 30.26 5.61439C30.43 5.51439 30.61 5.43439 30.79 5.35439C32.2 4.74439 33.91 4.74439 35.32 5.35439C36.02 5.65439 36.63 6.07439 37.16 6.59439C37.68 7.11439 38.1 7.73439 38.4 8.43439C38.71 9.13439 38.86 9.90439 38.86 10.7044C38.86 11.5044 38.71 12.2644 38.4 12.9744C38.27 13.2744 38.12 13.5544 37.94 13.8344C38.84 14.0744 39.62 14.5944 40.19 15.3544L40.3 15.5044C40.79 16.1544 41.07 16.9144 41.13 17.7044C41.85 16.8644 42.44 15.9144 42.9 14.8644C43.45 13.5744 43.74 12.1744 43.74 10.7244C43.74 9.27439 43.46 7.87439 42.9 6.58439" fill="white"/>
</svg>
